<svg width="1200" height="360" viewBox="0 0 1200 360" fill="none" xmlns="http://www.w3.org/2000/svg" role="img" aria-label="OPS Assistant lead generation banner">
  <defs>
    <linearGradient id="bg" x1="0" y1="0" x2="1" y2="1">
      <stop offset="0%" stop-color="#0D1B2A"/>
      <stop offset="100%" stop-color="#1B263B"/>
    </linearGradient>
    <linearGradient id="accent" x1="0" y1="0" x2="1" y2="0">
      <stop offset="0%" stop-color="#3FA9F5"/>
      <stop offset="100%" stop-color="#62F5D8"/>
    </linearGradient>
  </defs>
  <rect width="1200" height="360" rx="28" fill="url(#bg)"/>
  <circle cx="1060" cy="70" r="110" fill="url(#accent)" opacity="0.18"/>
  <circle cx="140" cy="300" r="140" fill="url(#accent)" opacity="0.12"/>
  <rect x="80" y="90" width="520" height="180" rx="22" fill="#0F172A" opacity="0.85"/>
  <rect x="110" y="120" width="260" height="16" rx="8" fill="url(#accent)"/>
  <rect x="110" y="150" width="320" height="12" rx="6" fill="#E2E8F0" opacity="0.9"/>
  <rect x="110" y="172" width="300" height="12" rx="6" fill="#E2E8F0" opacity="0.75"/>
  <rect x="110" y="206" width="240" height="44" rx="12" fill="url(#accent)"/>
  <text x="440" y="204" fill="#E2E8F0" font-family="system-ui, -apple-system, Segoe UI, sans-serif" font-size="22" font-weight="700">OPS Assistant</text>
  <text x="440" y="236" fill="#E2E8F0" font-family="system-ui, -apple-system, Segoe UI, sans-serif" font-size="16" opacity="0.8">Guided CX • Lead Gen • Careers</text>
  <path d="M770 110C820 84 872 84 920 110" stroke="url(#accent)" stroke-width="6" stroke-linecap="round"/>
  <path d="M770 150C836 120 890 120 940 150" stroke="url(#accent)" stroke-width="6" stroke-linecap="round" opacity="0.7"/>
  <path d="M770 190C836 160 890 160 940 190" stroke="url(#accent)" stroke-width="6" stroke-linecap="round" opacity="0.5"/>
  <rect x="770" y="228" width="280" height="60" rx="18" fill="#0F172A" opacity="0.9"/>
  <circle cx="800" cy="258" r="16" fill="url(#accent)"/>
  <rect x="828" y="246" width="180" height="12" rx="6" fill="#E2E8F0" opacity="0.85"/>
  <rect x="828" y="266" width="140" height="10" rx="5" fill="#E2E8F0" opacity="0.6"/>
</svg>
